<svg width="375" height="375" viewBox="0 0 375 375" fill="none" xmlns="http://www.w3.org/2000/svg">
<path fill-rule="evenodd" clip-rule="evenodd" d="M375 0H0V375H375V0ZM332.713 195.461C332.649 195.445 332.585 195.434 332.521 195.423C331.697 195.385 330.994 195.407 330.994 195.407H297.914L275.282 195.39L273.17 195.352C273.17 195.352 273.159 188.947 273.154 183.611C273.066 183.663 272.978 183.716 272.89 183.769C272.803 183.822 272.715 183.875 272.627 183.926C272.62 183.91 272.61 183.893 272.601 183.875C272.591 183.857 272.581 183.838 272.57 183.819C272.518 183.724 272.465 183.627 272.484 183.611C272.656 183.489 272.848 183.386 273.039 183.283L273.039 183.283C273.077 183.262 273.116 183.241 273.154 183.221V179.225C272.588 178.524 271.958 177.988 271.321 177.446L271.321 177.445C270.868 177.06 270.412 176.671 269.973 176.218V175.719C269.558 175.621 269.148 175.572 268.765 175.621C267.376 175.789 266.137 175.475 265.073 174.954C263.003 173.944 260.843 173.265 258.561 172.782C257.619 172.581 256.63 172.267 255.853 171.767C253.858 170.486 251.879 170.258 249.708 171.371C249.549 171.449 249.29 171.373 249.017 171.292C248.89 171.255 248.759 171.216 248.634 171.192C248.754 170.952 248.861 170.745 248.969 170.533C249.105 170.269 249.244 169.997 249.421 169.645C248.966 169.543 248.526 169.445 248.098 169.349L248.036 169.335L248.019 169.331C247.036 169.112 246.111 168.905 245.186 168.7C244.876 168.632 244.566 168.551 244.256 168.47L244.256 168.47L244.256 168.47C243.554 168.287 242.851 168.103 242.143 168.065C241.354 168.022 241.127 168.519 240.891 169.035C240.712 169.427 240.528 169.829 240.089 170.014C239.933 170.081 239.909 170.39 239.883 170.708C239.871 170.855 239.859 171.005 239.834 171.132C239.318 171.045 238.797 170.953 238.281 170.861C238.318 171.078 238.376 171.279 238.456 171.458H247.82C247.831 171.729 247.846 171.993 247.861 172.253C247.915 173.194 247.966 174.067 247.82 174.926C247.931 174.97 248.043 175.008 248.139 175.035C248.491 175.142 248.858 175.224 249.224 175.305L249.224 175.305L249.225 175.306C249.881 175.452 250.535 175.598 251.102 175.887C252.805 176.745 254.432 177.342 256.491 177.586C256.638 177.604 256.787 177.621 256.935 177.638C259.483 177.933 262.256 178.254 264.221 180.208C264.559 180.541 265.085 180.721 265.612 180.903C265.851 180.985 266.09 181.067 266.312 181.163C266.328 181.197 266.345 181.232 266.361 181.266C266.38 181.305 266.4 181.344 266.419 181.383L266.42 181.385C266.455 181.457 266.491 181.53 266.525 181.603C264.969 181.199 264.623 181.936 264.269 182.691C264.038 183.185 263.802 183.687 263.221 183.883C263.154 183.802 263.073 183.722 262.996 183.647C262.836 183.49 262.693 183.349 262.721 183.242C263.083 181.885 262.269 181.321 260.971 180.93C260.65 180.831 260.382 180.598 260.113 180.363C259.968 180.236 259.822 180.108 259.667 180.002C259.04 179.573 258.433 179.231 257.529 179.464C255.598 179.964 253.996 179.149 252.501 178.205C252.184 178.006 251.904 177.753 251.625 177.501C251.258 177.171 250.894 176.842 250.453 176.642C249.754 176.33 248.9 176.248 248.085 176.17L247.966 176.159C247.928 176.155 247.889 176.151 247.852 176.148C247.016 176.061 246.213 175.882 245.426 175.648C244.654 175.719 243.893 175.795 243.138 175.887L242.911 175.916C241.093 176.144 239.273 176.373 237.546 177.087C236.387 177.564 235.647 178.373 235.355 179.638C235.046 180.962 234.78 182.287 234.684 183.649C234.416 187.416 234.422 191.191 234.428 194.966C234.429 195.69 234.43 196.414 234.429 197.138C234.429 199.102 234.429 201.066 234.428 203.029C234.428 210.894 234.427 218.757 234.439 226.624C234.439 226.774 234.429 226.927 234.419 227.082C234.383 227.621 234.346 228.17 234.743 228.605C235.176 228.729 235.516 228.594 235.844 228.464C235.89 228.445 235.936 228.427 235.982 228.409C236.409 228.247 236.836 228.086 237.263 227.924C238.85 227.325 240.436 226.725 241.999 226.075C242.984 225.668 243.877 225.663 244.84 226.113C246.532 226.906 248.107 227.894 249.666 228.931C251.49 230.141 252.23 231.943 252.491 233.99C252.523 234.228 252.545 234.467 252.567 234.706L252.568 234.706C252.579 234.826 252.59 234.945 252.602 235.064C252.634 234.88 252.666 234.695 252.698 234.516C252.785 234.532 252.873 234.548 252.962 234.564L252.978 234.567L253.077 234.585C253.128 234.595 253.179 234.604 253.23 234.614C253.177 234.804 253.125 234.993 253.073 235.182C253.021 235.37 252.969 235.559 252.916 235.748C252.831 235.732 252.746 235.716 252.666 235.699C253.007 239.928 252.586 244.097 251.32 248.189C251.288 248.295 251.256 248.4 251.223 248.506C250.789 249.929 250.342 251.392 249.346 252.483C246.846 255.224 244.01 257.564 240.685 259.236C239.988 259.588 239.302 259.778 238.531 259.789C235.328 259.827 232.162 259.48 229.024 258.888C218.623 256.94 209.297 252.488 200.822 246.105C200.401 245.79 199.981 245.465 199.779 244.981C199.407 243.548 199.88 242.577 201.114 241.855C201.926 241.378 202.714 240.859 203.502 240.339L203.503 240.339C204.177 239.894 204.852 239.45 205.541 239.032C205.983 238.763 206.419 238.482 206.856 238.201C208.333 237.249 209.812 236.295 211.52 235.813C211.824 235.727 212.132 235.651 212.441 235.575C212.265 235.493 212.084 235.433 211.914 235.433C209.962 235.444 208.36 234.744 206.876 233.696C206.638 233.529 206.313 233.455 205.986 233.381C205.816 233.342 205.646 233.303 205.487 233.251C204.274 232.844 203.21 232.269 202.444 231.075C204.017 230.486 204.071 230.506 204.859 230.804C204.9 230.819 204.942 230.835 204.987 230.852C205.177 230.924 205.368 230.998 205.558 231.072L205.561 231.073C206.669 231.501 207.785 231.933 208.951 232.155C211.285 232.595 213.172 233.718 215.126 234.881L215.197 234.923C215.606 234.831 216.016 234.733 216.426 234.63C216.742 234.551 217.067 234.5 217.391 234.45C218.086 234.343 218.778 234.235 219.373 233.843C219.619 233.354 219.601 232.872 219.584 232.402C219.579 232.283 219.575 232.164 219.575 232.046C219.576 229.671 219.577 227.296 219.578 224.921C219.583 213.085 219.588 201.25 219.575 189.414L219.575 188.934C219.577 186.375 219.578 183.821 219.203 181.266C218.83 178.764 217.713 177.152 215.181 176.598C210.728 175.621 206.275 175.192 201.747 176.072C201.453 176.129 201.158 176.182 200.862 176.235C199.735 176.437 198.609 176.639 197.534 177.087C196.379 177.57 195.64 178.373 195.331 179.633C194.831 181.657 194.677 183.709 194.677 185.783V237.116V260.918C194.677 262.878 194.757 264.859 195.47 266.683C195.925 267.847 196.352 269.022 196.779 270.198L196.78 270.199C197.581 272.405 198.384 274.612 199.369 276.747C199.879 277.851 200.34 278.979 200.8 280.106L200.8 280.107C200.965 280.509 201.129 280.911 201.295 281.312C201.315 281.36 201.335 281.408 201.356 281.456C201.588 282.002 201.83 282.569 201.316 283.347C198.65 283.677 195.901 283.825 193.171 283.972H193.17C192.125 284.028 191.082 284.084 190.048 284.151C189.005 282.909 188.57 281.456 188.119 279.95C187.825 278.968 187.524 277.964 187.043 276.98C186.627 277.927 186.346 278.877 186.072 279.799C185.599 281.394 185.151 282.905 184.079 284.178C182.676 284.054 181.269 283.983 179.865 283.912C177.452 283.791 175.051 283.67 172.71 283.282C172.329 282.351 172.634 281.695 172.922 281.076C172.98 280.951 173.037 280.827 173.088 280.704C174.711 276.779 176.328 272.86 177.865 268.898C178.983 266.021 179.472 263.133 179.467 260.082V251.419C179.432 251.403 179.399 251.388 179.365 251.373C179.332 251.358 179.299 251.343 179.265 251.327C179.328 251.24 179.397 251.154 179.466 251.067L179.467 251.066V235.938C179.281 235.994 179.102 236.048 178.927 236.1L178.926 236.1C178.66 236.18 178.404 236.256 178.147 236.334C178.53 235.124 178.61 234.885 179.467 235.276V225.994C178.323 225.793 177.179 225.609 176.035 225.598C175.977 225.597 175.919 225.597 175.861 225.597C175.772 225.598 175.684 225.599 175.598 225.6C174.566 225.612 173.741 225.621 173.349 224.452C173.258 224.176 172.747 223.942 172.375 223.823C171.855 223.654 171.336 223.463 170.818 223.272C169.479 222.778 168.137 222.284 166.757 222.178C165.487 222.08 164.313 221.723 163.144 221.367C161.977 221.012 160.816 220.658 159.569 220.566C159.053 220.528 158.399 220.278 158.128 219.936C157.925 219.676 157.908 219.297 157.891 218.931C157.884 218.777 157.877 218.626 157.856 218.487C156.876 218.122 155.856 217.867 154.836 217.613L154.574 217.548C154.574 220.001 154.571 222.454 154.569 224.907L154.569 224.949C154.566 227.416 154.563 229.883 154.563 232.35C154.563 232.431 154.561 232.513 154.559 232.595C154.548 232.986 154.537 233.393 154.765 233.838C155.376 234.254 156.108 234.362 156.85 234.471C157.181 234.52 157.515 234.569 157.84 234.646C158.337 234.764 158.836 234.872 159.335 234.981C161.389 235.426 163.442 235.871 165.278 236.98C166.624 237.791 167.947 238.641 169.27 239.49C170.499 240.28 171.728 241.07 172.976 241.828C174.253 242.604 174.79 243.592 174.285 245.171C173.6 246.013 172.673 246.61 171.737 247.213C171.357 247.458 170.976 247.704 170.609 247.967C170.305 248.184 170.002 248.396 169.699 248.607C169.986 248.683 170.279 248.754 170.566 248.825C170.555 248.86 170.544 248.896 170.532 248.932C170.521 248.968 170.509 249.004 170.497 249.039C170.473 249.111 170.449 249.183 170.428 249.253C170.034 249.053 169.582 249.025 169.13 248.998H169.13C162.82 253.281 155.941 256.288 148.546 258.117C144.365 259.154 140.135 259.784 135.82 259.773C135.065 259.773 134.352 259.713 133.639 259.339C130.782 257.83 128.25 255.914 125.898 253.666C124.201 252.043 123.377 250.046 122.744 247.885C122.648 247.556 122.571 247.221 122.495 246.885L122.495 246.885C122.413 246.529 122.332 246.172 122.228 245.823C121.036 241.763 121.217 237.626 121.712 233.517C121.93 231.699 122.738 230.043 124.414 228.958C125.93 227.97 127.452 227.004 129.075 226.206C130.139 225.679 131.133 225.641 132.24 226.119C133.719 226.755 135.232 227.32 136.741 227.884L136.753 227.888C137.145 228.034 137.537 228.181 137.927 228.328C138.013 228.36 138.099 228.397 138.185 228.435C138.574 228.602 138.974 228.775 139.449 228.561C139.719 228.146 139.702 227.67 139.686 227.197V227.197C139.682 227.083 139.678 226.969 139.678 226.857C139.678 222.672 139.683 218.487 139.688 214.302L139.209 214.172C139.166 213.911 139.128 213.683 139.091 213.466C139.018 213.023 138.951 212.624 138.858 212.082C137.076 213.585 135.618 213.075 134.182 212.239C134.028 212.148 133.886 212.037 133.745 211.926L133.745 211.926L133.687 211.881C132.985 211.354 132.362 211.268 131.671 211.962C131.064 212.57 130.351 212.494 129.968 211.74C129.454 210.723 128.443 210.362 127.406 209.992L127.33 209.965C126.899 209.81 126.47 209.651 126.042 209.492C125.223 209.188 124.405 208.884 123.574 208.613C123.36 208.545 123.145 208.47 122.928 208.394C122.128 208.116 121.311 207.832 120.52 207.853C118.482 207.913 116.796 207.278 115.131 206.399C114.808 206.228 114.452 206.107 114.096 205.985C113.918 205.924 113.74 205.863 113.566 205.796C112.045 205.215 110.523 204.667 109.06 205.563C107.932 204.819 106.932 204.157 105.863 203.446C107.379 202.539 108.81 202.615 110.263 203.391C111.284 203.934 112.332 204.396 113.795 203.896C113.243 203.271 112.492 202.986 111.742 202.701C110.96 202.405 110.178 202.108 109.619 201.426C109.993 201.456 110.347 201.481 110.686 201.505L110.686 201.505L110.688 201.505C111.421 201.558 112.085 201.606 112.747 201.676C115.216 201.931 115.875 202.545 116.078 204.754C116.326 204.786 116.6 204.794 116.876 204.803C117.487 204.822 118.108 204.841 118.482 205.117C120.275 206.447 122.185 206.518 124.212 205.953C124.879 206.782 126.131 207.256 127.968 207.376C127.995 208.141 128.133 208.901 129.41 208.76L129.444 208.676C129.599 208.293 129.764 207.885 129.952 207.43C130.106 207.454 130.257 207.478 130.407 207.501L130.853 207.572C131.572 207.686 132.249 207.792 132.926 207.897C132.674 209.116 133.23 209.923 134.592 210.318C135.372 210.546 136.15 210.781 136.928 211.016L136.931 211.017L136.932 211.017C137.85 211.294 138.767 211.57 139.688 211.837C139.694 204.287 139.688 196.737 139.646 189.186C139.63 186.418 139.497 183.639 139.087 180.881C138.725 178.46 137.464 177.049 135.129 176.587C134.946 176.551 134.763 176.514 134.58 176.478L134.576 176.477L134.576 176.477C133.171 176.195 131.769 175.914 130.33 175.833C129.395 175.777 128.464 175.652 127.556 175.53L127.555 175.53C127.141 175.474 126.732 175.419 126.329 175.372V171.36H179.036V154.462H179.015C178.855 154.481 178.677 154.408 178.508 154.34L178.508 154.34C178.474 154.326 178.441 154.312 178.408 154.3C177.962 154.129 177.517 153.955 177.073 153.782L177.07 153.781L177.068 153.78C176.03 153.375 174.991 152.969 173.934 152.601C173.529 152.461 173.125 152.309 172.719 152.157L172.719 152.157C171.471 151.69 170.214 151.219 168.917 151.075C166.927 150.851 165.483 149.955 163.708 148.853L163.708 148.853C163.509 148.73 163.305 148.603 163.097 148.475C163.419 148.497 163.68 148.507 163.9 148.515C164.284 148.529 164.545 148.538 164.789 148.6C165.676 148.832 166.564 149.06 167.453 149.288C170.317 150.024 173.183 150.761 176.009 151.602C177.019 151.906 178.03 152.221 179.036 152.546V83.0993L172.726 74.8377L165.39 82.8713V89.7433L164.485 92.2511L162.363 79.4245C162.363 79.4245 162.389 70.9458 162.384 63.607C162.384 63.455 162.384 63.0045 162.373 62.3911C162.271 62.4167 162.167 62.443 162.061 62.4699C161.853 62.5226 161.636 62.5778 161.4 62.6354C161.354 62.2754 161.32 61.9965 161.286 61.7245L161.286 61.7215L161.281 61.6799C161.266 61.5568 161.251 61.4343 161.235 61.3055C161.616 61.2407 161.987 61.1758 162.357 61.111L162.361 61.1103L162.363 61.1101L162.361 60.9626C162.356 60.3852 162.351 59.7668 162.341 59.1668C159.984 59.3405 157.617 59.3731 155.239 58.7651C155.336 58.7416 155.433 58.7165 155.529 58.6915L155.529 58.6914C155.745 58.6356 155.959 58.5801 156.175 58.5426C158.234 58.1952 160.288 58.244 162.336 58.3798C162.32 56.925 162.309 55.7363 162.309 55.7363L157.25 49L110.757 94.786V101.343L110.827 101.441C111.194 101.691 111.539 102.054 111.853 102.537L111.811 102.555C111.782 102.567 111.755 102.579 111.728 102.591C111.712 102.598 111.695 102.605 111.678 102.613L116.211 108.894L116.828 110.343C116.87 110.316 116.913 110.294 116.955 110.278C118.099 109.816 118.966 110.365 119.722 111.081C119.355 111.425 118.993 111.761 118.609 112.119L118.607 112.121L118.6 112.127C118.369 112.342 118.13 112.565 117.876 112.802L119.908 117.579C119.908 117.579 114.051 111.472 110.71 108.275V112.254C111.704 111.933 112.614 112.026 113.577 112.509C112.673 113.535 111.864 113.779 110.71 113.242V125.58C110.71 127.434 110.71 129.289 110.711 131.144C110.712 134.855 110.713 138.567 110.71 142.276C110.708 143.994 110.71 145.712 110.713 147.434V147.44C110.718 151.326 110.723 155.231 110.683 159.19H106.549L103.73 162.198V165.438C104.299 165.639 104.863 165.861 105.416 166.117L105.564 166.184C106.331 166.536 107.225 166.946 107.97 166.839C109.052 166.691 109.816 167.072 110.597 167.461C110.791 167.558 110.987 167.655 111.188 167.745C108.55 167.636 106.097 167.029 103.73 166.198V182.553L100.979 185.571L100.841 195.39H52.9809C52.3033 195.39 51.6257 195.389 50.9482 195.388H50.9476C49.5936 195.386 48.2403 195.383 46.8894 195.39C46.2858 195.394 45.6817 195.389 45.0752 195.385H45.0745C43.7352 195.375 42.384 195.364 41 195.439C44.4155 205.123 48.6397 214.101 54.3056 222.58H100.74C100.64 224.092 100.621 225.422 100.681 226.569C87.5244 228.73 74.3465 230.896 60.7642 233.132C62.8968 235.721 64.913 238.356 66.9168 240.975C71.3418 246.76 75.7064 252.465 81.1297 257.412C89.1843 256.098 97.4411 254.752 105.772 253.4C106.012 255.631 106.469 257.097 107.283 258.573L100.564 261.188C96.7244 262.682 92.8584 264.187 89.163 265.624C90.3076 266.797 93.8447 269.36 95.3239 270.431L95.3254 270.433C95.6468 270.665 95.8707 270.828 95.9515 270.89C96.4615 271.278 97.6587 272.016 98.8859 272.772C100.232 273.601 101.614 274.453 102.165 274.89C107.602 278.213 108.54 278.705 110.663 279.82L110.664 279.821L110.665 279.821C111.765 280.399 113.182 281.143 115.705 282.533C116.78 283.092 117.211 283.005 117.211 283.005C118.51 282.595 119.929 282.165 121.379 281.727L121.383 281.725C123.827 280.986 126.354 280.221 128.527 279.482C132.048 278.283 135.602 278.495 139.183 278.907C140.108 279.016 140.986 279.341 141.816 279.786C144.396 281.181 145.375 283.461 145.115 286.278C144.939 288.189 144.306 289.975 142.918 291.381C142.37 291.934 141.923 292.559 141.811 293.351C141.697 294.154 141.573 294.955 141.449 295.757C141.147 297.698 140.846 299.639 140.699 301.602C140.396 305.663 140.358 309.73 140.321 313.797C140.311 314.938 140.3 316.078 140.284 317.219C140.282 317.332 140.277 317.447 140.272 317.561C140.252 318.035 140.232 318.511 140.412 318.966C141.79 320.28 152.212 323.472 152.212 323.472C152.212 323.472 152.696 319.232 153.616 314.184C154.983 314.405 156.232 314.624 157.438 314.837C159.917 315.273 162.217 315.678 165.001 315.992C165.165 317.877 165.181 319.898 165.197 321.777V321.777C165.21 323.387 165.223 324.893 165.326 326.121C170.008 326.908 174.593 327.065 179.302 326.951C179.527 325.551 179.692 324.15 179.856 322.758L179.856 322.757L179.856 322.757C180.091 320.764 180.324 318.789 180.728 316.866C182.593 316.958 184.027 316.958 185.482 316.959H185.482C185.998 316.959 186.517 316.959 187.059 316.963C187.544 316.967 188.009 316.974 188.468 316.981H188.47C190.004 317.004 191.473 317.026 193.405 316.925C193.662 318.648 193.884 320.398 194.087 322.006C194.322 323.86 194.532 325.524 194.746 326.739C198.534 326.984 206.493 326.3 208.988 325.643V315.992C211.239 315.575 213.379 315.285 215.558 314.989C217.21 314.765 218.886 314.537 220.65 314.249C220.841 315.959 221.129 318.548 221.129 318.548L221.687 323.488C221.687 323.488 232.29 319.835 233.743 318.863C233.743 318.083 233.744 317.295 233.746 316.503C233.75 314.903 233.753 313.284 233.743 311.666C233.705 306.52 233.498 301.385 232.737 296.282C232.211 292.376 232.094 292.247 231.396 291.481C231.162 291.224 230.862 290.895 230.46 290.328C227.779 286.653 228.082 280.362 234.604 278.95C236.203 278.606 237.797 278.617 239.399 278.628L239.664 278.63C239.692 278.619 239.722 278.608 239.752 278.598C239.778 278.589 239.804 278.581 239.829 278.57C239.823 278.581 239.819 278.591 239.815 278.6C239.811 278.61 239.807 278.619 239.802 278.63H240.318C241.829 278.63 243.319 278.695 244.782 279.184C245.821 279.529 246.87 279.847 247.919 280.165L247.921 280.165C249.708 280.707 251.494 281.248 253.23 281.925C256.72 282.87 257.672 282.631 260.859 281.133L262.966 280.058L262.902 280.025C262.925 279.995 262.952 279.955 262.979 279.915C263.037 279.828 263.095 279.741 263.12 279.748C263.192 279.77 263.26 279.795 263.33 279.82L263.331 279.821L263.386 279.841C269.59 276.676 272.994 274.82 279.198 269.924L279.365 269.795C282.481 267.4 283.262 266.8 284.465 265.429C281.474 264.265 278.482 263.1 275.476 261.93C272.583 260.803 269.676 259.672 266.743 258.53C267.749 256.413 268.275 254.546 268.382 253.422C272.36 253.999 276.32 254.664 280.263 255.326L280.265 255.327C284.6 256.055 288.915 256.779 293.211 257.379C297.1 253.444 299.611 250.589 303.628 245.606C305.716 242.763 307.885 239.982 310.123 237.112L310.125 237.109L310.128 237.106C311.15 235.795 312.186 234.467 313.236 233.105C305.655 231.858 298.183 230.63 290.743 229.408C284.868 228.442 279.014 227.48 273.143 226.515C273.307 225.522 273.276 224.942 273.241 224.302V224.301C273.215 223.818 273.186 223.301 273.239 222.547H319.795C325.445 214.063 329.691 204.971 332.989 195.51L332.938 195.495C332.861 195.473 332.786 195.452 332.707 195.434L332.713 195.461ZM211.409 217.466C211.478 217.445 211.696 217.591 211.696 217.656C211.689 217.753 211.634 217.845 211.578 217.939L211.577 217.939C211.552 217.982 211.526 218.025 211.504 218.069C211.345 217.993 211.185 217.917 210.919 217.787C210.987 217.739 211.046 217.695 211.099 217.654C211.216 217.565 211.306 217.496 211.409 217.466ZM195.262 238.375C195.267 238.31 195.274 238.244 195.281 238.177C195.283 238.153 195.286 238.13 195.288 238.106C195.292 238.063 195.296 238.021 195.299 237.979C195.377 237.979 195.455 237.978 195.532 237.978C195.816 237.975 196.098 237.972 196.374 238.006C196.4 238.01 196.403 238.169 196.405 238.327C196.407 238.397 196.408 238.467 196.411 238.522C196.22 238.498 196.027 238.473 195.834 238.449C195.641 238.424 195.448 238.4 195.257 238.375H195.262ZM198.252 268.865C198.142 267.693 198.499 267.175 199.321 267.313C199.201 267.486 199.079 267.663 198.946 267.856L198.784 268.091L198.784 268.092C198.629 268.318 198.456 268.569 198.252 268.865ZM177.786 250.654C177.762 250.716 177.738 250.777 177.714 250.838C177.69 250.899 177.666 250.96 177.642 251.023C177.213 250.882 176.757 250.815 176.3 250.748C175.242 250.592 174.184 250.436 173.471 249.367C174.189 249.582 174.909 249.796 175.628 250.011C176.348 250.225 177.067 250.439 177.786 250.654ZM122.004 209.862C122.019 209.882 122.034 209.903 122.049 209.924C122.121 210.023 122.194 210.123 122.238 210.231C122.246 210.242 122.147 210.292 122.053 210.339L122.052 210.339C122.013 210.359 121.975 210.378 121.946 210.394C121.926 210.362 121.901 210.329 121.877 210.298L121.877 210.298C121.826 210.233 121.777 210.17 121.781 210.111C121.788 210.054 121.847 210.002 121.908 209.949C121.94 209.92 121.973 209.892 121.999 209.862H122.004ZM176.243 111.841L176.338 111.517C176.496 111.557 176.653 111.598 176.811 111.64L176.812 111.64C176.972 111.682 177.131 111.724 177.291 111.765L177.211 112.042L177.051 112.009C176.784 111.955 176.513 111.9 176.243 111.841ZM172.551 87.4906L172.432 89.3073C172.349 90.5728 172.266 91.8383 172.183 93.1087C171.593 90.4109 171.699 88.8531 172.551 87.4906ZM158.495 55.9425C158.692 56.0728 158.92 56.2519 158.958 56.4419C158.969 56.5164 158.822 56.6163 158.674 56.7173L158.674 56.7174C158.606 56.7637 158.538 56.8101 158.484 56.8545C158.395 56.7539 158.304 56.6553 158.204 56.5468C158.131 56.4678 158.053 56.3837 157.968 56.2899C158.05 56.2333 158.132 56.1724 158.206 56.1175C158.351 56.0093 158.465 55.9245 158.489 55.9425H158.495ZM115.726 173.086C115.447 173.032 115.169 172.976 114.892 172.921C114.614 172.865 114.335 172.81 114.056 172.755C114.1 172.64 114.146 172.53 114.193 172.418C114.214 172.366 114.236 172.314 114.258 172.261L114.267 172.264C114.785 172.442 115.304 172.62 115.822 172.793L115.726 173.086ZM118.12 174.248C118.519 173.363 118.855 173.119 119.674 173.64L119.22 173.818C118.897 173.945 118.584 174.068 118.12 174.248ZM122.313 169.802C122.335 169.747 122.356 169.693 122.377 169.64C122.412 169.55 122.446 169.462 122.483 169.373C122.724 169.446 122.965 169.519 123.207 169.592L123.508 169.683C123.849 169.786 124.191 169.889 124.531 169.992C123.515 170.644 122.834 170.427 122.313 169.802ZM121.281 149.029C122.516 149.283 123.628 149.509 124.712 149.729L125.489 149.887C123.26 150.386 122.845 150.283 121.281 149.029ZM124.09 111.119L124.622 111.034L124.624 111.033C125.1 110.957 125.516 110.89 125.936 110.826C125.407 111.535 124.792 111.633 124.09 111.119ZM126.361 203.554C126.633 203.619 126.909 203.695 127.181 203.771C127.124 203.823 127.068 203.875 127.011 203.926C126.963 203.969 126.915 204.013 126.867 204.056C126.762 204.151 126.657 204.246 126.553 204.341C126.406 204.219 126.26 204.095 126.075 203.939L126.071 203.936L126.067 203.932C125.884 203.778 125.662 203.591 125.366 203.342C125.532 203.378 125.667 203.407 125.779 203.431C126.092 203.499 126.227 203.528 126.356 203.56L126.361 203.554ZM136.694 150.556C136.615 150.756 136.536 150.952 136.56 151.135C136.57 151.208 136.329 151.313 135.966 151.471L135.966 151.471C135.765 151.559 135.526 151.663 135.272 151.786C135.703 150.679 135.959 150.028 136.246 149.3C137.044 149.681 136.865 150.128 136.694 150.556ZM137.076 161.248L136.809 161.076L136.808 161.076C136.57 160.923 136.333 160.772 136.097 160.618C136.172 160.531 136.241 160.444 136.31 160.357C136.401 160.408 136.492 160.457 136.583 160.507C136.67 160.554 136.756 160.601 136.842 160.648L136.854 160.655C137.027 160.749 137.2 160.843 137.374 160.938C137.278 161.036 137.186 161.135 137.091 161.237L137.076 161.253V161.248ZM154.597 67.5342C155.033 67.4378 155.468 67.3414 155.91 67.2449C155.925 67.3003 155.939 67.3556 155.953 67.411L155.954 67.4148C155.969 67.4718 155.984 67.5288 156 67.5858C155.789 67.645 155.577 67.7055 155.364 67.766L155.359 67.7676C155.144 67.8287 154.93 67.8898 154.718 67.9495C154.699 67.8914 154.68 67.8333 154.661 67.7747C154.635 67.6966 154.609 67.6176 154.585 67.5369L154.597 67.5342ZM151.903 82.8496C151.939 82.8679 151.983 82.8837 152.027 82.8994C152.113 82.9302 152.198 82.9603 152.212 83.007C152.23 83.0666 152.186 83.1415 152.141 83.2177L152.14 83.2179C152.12 83.2527 152.099 83.2878 152.084 83.3219C152.057 83.3089 152.027 83.2972 151.996 83.2859C151.985 83.2819 151.974 83.2779 151.963 83.274C151.875 83.2425 151.79 83.2122 151.775 83.1644C151.757 83.1037 151.803 83.027 151.849 82.9511C151.869 82.9185 151.889 82.886 151.903 82.855V82.8496ZM152.701 84.2446C152.42 84.4361 152.176 84.6003 151.928 84.7677L151.924 84.7708C151.667 84.9441 151.405 85.121 151.089 85.3357C151.235 84.4599 151.772 84.0963 152.701 84.2446ZM141.109 156.748C141.329 156.78 141.55 156.814 141.771 156.848C141.992 156.882 142.213 156.916 142.433 156.949C142.423 157.003 142.417 157.057 142.407 157.117H141.087C141.09 157.052 141.094 156.988 141.098 156.924C141.102 156.864 141.106 156.805 141.109 156.748ZM144.21 161.97C142.907 162.29 141.955 161.752 140.901 160.954C142.604 161.11 143.707 161.448 144.21 161.97ZM139.022 160.671C139.289 160.635 139.558 160.599 139.827 160.564C139.845 160.632 139.865 160.699 139.885 160.767C139.905 160.835 139.925 160.903 139.944 160.971L138.502 161.416C138.438 161.199 138.379 160.982 138.321 160.765L138.321 160.764C138.553 160.734 138.787 160.703 139.022 160.671ZM137.017 115.793C137.261 115.911 137.431 116.149 137.601 116.387L137.602 116.387C137.673 116.487 137.744 116.586 137.821 116.678C137.724 116.73 137.627 116.799 137.529 116.867C137.314 117.017 137.1 117.167 136.906 117.144C136.702 117.122 136.519 116.948 136.299 116.737C136.191 116.635 136.075 116.523 135.943 116.417C136.103 116.32 136.26 116.209 136.403 116.108C136.685 115.909 136.915 115.746 137.017 115.793ZM136.198 110.826C136.299 110.886 136.395 110.945 136.491 111.005C136.432 111.089 136.374 111.175 136.317 111.26L136.317 111.26L136.316 111.261C136.152 111.505 135.988 111.749 135.783 111.966C135.743 112.01 135.611 111.988 135.391 111.95C135.263 111.928 135.104 111.901 134.916 111.879C135.191 111.655 135.418 111.467 135.621 111.3L135.624 111.297C135.833 111.125 136.015 110.974 136.198 110.826ZM134.513 118.647L134.513 118.648L134.513 118.652C134.525 118.75 134.537 118.848 134.549 118.946C134.427 118.952 134.303 118.959 134.179 118.965C134.056 118.972 133.932 118.979 133.809 118.984L133.782 118.802C133.722 118.403 133.663 118.007 133.607 117.611C133.692 117.606 133.799 117.596 133.905 117.586C134.126 117.566 134.345 117.546 134.352 117.568H134.347C134.426 117.921 134.469 118.284 134.513 118.647ZM131.83 124.337C131.872 124.389 131.918 124.439 131.963 124.49C132.078 124.619 132.193 124.747 132.251 124.896C132.277 124.955 131.926 125.232 131.862 125.205C131.708 125.142 131.579 125.025 131.427 124.888C131.369 124.835 131.308 124.779 131.24 124.722C131.299 124.683 131.353 124.648 131.403 124.615L131.473 124.569C131.619 124.473 131.725 124.403 131.83 124.337ZM118.897 100.54C118.495 100.281 118.131 100.049 117.786 99.8284C117.479 99.6321 117.188 99.4454 116.897 99.2587C117.78 97.8474 118.869 97.4222 120.163 97.9831C119.929 98.3007 119.877 98.6933 119.827 99.08C119.747 99.6848 119.67 100.275 118.897 100.54ZM119.482 103.715C119.488 103.639 119.491 103.562 119.495 103.486C119.499 103.406 119.504 103.326 119.509 103.248C120.109 103.191 120.711 103.133 121.284 103.077C121.854 103.021 122.397 102.969 122.882 102.923C123.741 103.349 124.55 103.752 125.335 104.142C125.79 104.369 126.238 104.592 126.683 104.813C126.886 104.914 127.089 105.015 127.292 105.116C124.398 105.479 121.93 104.633 119.482 103.721V103.715ZM119.062 148.448C117.211 149.056 116.812 149.04 116.056 148.35C117.539 147.985 118.541 148.018 119.062 148.448ZM116.668 114.783C117.173 115.315 117.317 115.82 116.849 116.46C116.668 116.71 116.615 117.171 116.748 117.432C117.352 118.595 116.627 118.624 115.821 118.656C115.754 118.658 115.687 118.661 115.62 118.664C115.095 117.3 115.444 116.008 116.668 114.789V114.783ZM114.46 146.966C114.505 147.032 114.555 147.097 114.605 147.162L114.605 147.162C114.729 147.322 114.853 147.482 114.891 147.656C114.905 147.723 114.77 147.819 114.587 147.949L114.587 147.949C114.491 148.017 114.382 148.095 114.274 148.182C114.205 148.059 114.134 147.951 114.07 147.854C113.936 147.652 113.832 147.495 113.843 147.341C113.847 147.251 114.034 147.167 114.221 147.082C114.307 147.044 114.392 147.005 114.46 146.966ZM120.196 151.724H120.196C121.319 151.783 122.462 151.844 123.451 152.622C123.04 152.812 122.661 152.985 122.289 153.156C121.863 153.351 121.445 153.543 120.993 153.751C119.881 152.118 118.051 151.928 116.2 151.814C114.912 151.738 113.8 151.314 112.864 150.457C114.673 150.652 116.482 150.891 118.158 151.439C118.802 151.65 119.495 151.686 120.196 151.724ZM112.396 181.733C112.628 181.765 112.859 181.797 113.099 181.831C113.476 181.884 113.873 181.939 114.322 181.999C113.629 182.546 113.049 182.999 112.478 183.446C112.199 183.664 111.922 183.881 111.635 184.105C111.438 183.98 111.217 183.843 111.016 183.719L111.009 183.715L110.816 183.595C111.134 183.217 111.424 182.875 111.708 182.54C111.938 182.27 112.163 182.004 112.396 181.728V181.733ZM60.8281 215.534C60.7584 215.534 60.6956 215.436 60.6307 215.335C60.5964 215.282 60.5616 215.228 60.5248 215.187C60.5996 215.139 60.6732 215.093 60.7546 215.042L60.7582 215.04C60.8437 214.986 60.938 214.927 61.0515 214.855C61.0905 214.924 61.1379 214.992 61.1813 215.054C61.2623 215.171 61.3293 215.267 61.3016 215.306C61.2058 215.431 60.9877 215.545 60.8228 215.534H60.8281ZM89.0036 233.26L89.0539 233.306C89.1098 233.356 89.1657 233.406 89.2215 233.458L89.2185 233.462C88.8311 233.987 88.4435 234.512 87.9234 235.227C87.7433 235.082 87.5822 234.953 87.4228 234.825C87.1773 234.628 86.936 234.434 86.636 234.19L87.167 233.946C87.8596 233.627 88.3713 233.391 88.8864 233.159V233.154C88.9254 233.19 88.9645 233.225 89.0036 233.26ZM90.0887 238.723C89.844 238.739 89.5886 238.75 89.3546 238.707C89.2777 238.691 89.2148 238.616 89.1517 238.541L89.1516 238.54C89.1294 238.514 89.1073 238.488 89.0845 238.464C89.0963 238.456 89.1081 238.449 89.1199 238.441L89.1311 238.434C89.2198 238.378 89.3084 238.321 89.3971 238.321C89.6418 238.321 89.8972 238.365 90.1419 238.413C90.1526 238.413 90.1207 238.728 90.094 238.734L90.0887 238.723ZM89.0619 238.451C89.0654 238.451 89.0688 238.456 89.0722 238.461C89.0657 238.465 89.0585 238.469 89.0514 238.473C89.042 238.479 89.0327 238.484 89.0247 238.489C89.0247 238.489 89.0291 238.485 89.0337 238.479C89.0362 238.475 89.0388 238.472 89.0407 238.468L89.0194 238.495C89.0194 238.495 89.0224 238.486 89.0259 238.476C89.0291 238.467 89.0328 238.457 89.0353 238.451H89.0619ZM89.105 238.227C89.0807 238.302 89.0566 238.378 89.0353 238.451C88.1469 238.56 87.4978 238.289 87.4819 237.447C87.4765 237.246 88.2001 236.807 88.4874 236.866C89.4783 237.063 89.2877 237.657 89.105 238.227ZM90.8921 232.084C90.815 232.112 90.7083 232.072 90.5495 232.014C90.4563 231.979 90.345 231.938 90.2111 231.9C90.2961 231.837 90.3711 231.781 90.4393 231.729C90.6445 231.573 90.7882 231.464 90.9559 231.395C91.0091 231.373 91.3177 231.639 91.2964 231.704C91.2326 231.862 91.0676 232.03 90.8974 232.09L90.8921 232.084ZM92.5519 232.529C92.9332 232.589 93.3145 232.648 93.6906 232.708C93.6968 232.67 93.705 232.624 93.7136 232.576C93.742 232.418 93.7747 232.235 93.7543 232.231C93.4662 232.156 93.1676 232.11 92.867 232.064L92.8667 232.063C92.8176 232.056 92.7684 232.048 92.7192 232.041C92.6972 232.037 92.6751 232.034 92.653 232.03C92.6158 232.193 92.5839 232.361 92.5519 232.529ZM107.076 194.701C106.554 193.984 106.56 193.55 107.22 193.138C107.885 193.686 107.906 194.12 107.076 194.701ZM104.724 170.237L105.889 170.644L105.889 170.644C105.847 170.741 105.804 170.839 105.756 170.931C105.635 170.889 105.513 170.846 105.392 170.804L105.176 170.727L105.172 170.726C104.981 170.659 104.789 170.592 104.597 170.524C104.639 170.427 104.682 170.329 104.724 170.237ZM92.5732 202.338C92.3125 202.371 92.0572 202.403 91.8018 202.441C91.8018 202.407 91.8 202.361 91.7982 202.316C91.7947 202.226 91.7912 202.137 91.8018 202.137C91.9977 202.109 92.1967 202.099 92.3963 202.089L92.3975 202.089C92.4631 202.085 92.5288 202.082 92.5945 202.078C92.5839 202.165 92.5785 202.251 92.5732 202.344V202.338ZM95.6217 203.95L96.7985 204.47C96.8327 204.413 96.8656 204.357 96.8984 204.301C96.9317 204.244 96.965 204.187 96.9996 204.13L96.9968 204.128C96.6253 203.939 96.2538 203.749 95.8823 203.554C95.8397 203.62 95.7956 203.686 95.7516 203.753C95.7078 203.819 95.6641 203.885 95.6217 203.95ZM100.032 202.485C98.3775 201.801 96.7016 201.242 94.8928 200.873C93.3292 200.554 91.8 200.108 90.2697 199.66C89.2434 199.361 88.2166 199.061 87.1786 198.799C86.8169 198.708 86.4403 198.671 86.0632 198.634C85.3366 198.563 84.6082 198.491 83.9812 198.034C83.8793 197.962 83.6427 198.037 83.3773 198.122C83.241 198.165 83.097 198.211 82.9598 198.24C83.2205 199.228 83.5077 199.977 84.6941 200.254C85.0468 200.336 85.3798 200.469 85.7131 200.601C86.3906 200.871 87.0695 201.141 87.9181 200.992C88.5033 200.889 88.7215 201.394 88.2799 201.996C85.806 201.964 83.3694 201.692 81.0499 200.525C82.6033 198.995 82.1458 198.251 79.6081 197.741C78.6186 199.787 78.1717 199.923 75.8095 198.761C76.0529 198.764 76.3076 198.793 76.557 198.823L76.5574 198.823C77.3655 198.917 78.1186 199.005 78.2568 198.142C78.3393 197.633 78.1459 197.09 77.9246 196.468C77.8179 196.168 77.7048 195.851 77.6131 195.51C77.824 195.538 78.0236 195.56 78.2151 195.581L78.216 195.582C78.5795 195.622 78.9137 195.659 79.241 195.727C80.7379 196.025 82.1933 196.453 83.6469 196.88L83.6472 196.88L83.6489 196.881C84.3385 197.084 85.0278 197.286 85.7209 197.475C89.002 198.373 92.3409 199.099 95.6792 199.825L95.6802 199.825L95.6811 199.825C97.3058 200.179 98.9304 200.532 100.548 200.905C101.229 201.063 101.883 201.35 102.495 201.665C102.658 201.746 102.752 201.935 102.85 202.132C102.897 202.226 102.944 202.322 103.001 202.409C101.703 202.751 100.841 202.821 100.027 202.485H100.032ZM103.091 228.567C103.598 227.253 104.421 227.199 105.196 227.148C105.308 227.141 105.419 227.134 105.528 227.123C105.592 227.248 105.661 227.373 105.73 227.498C105.498 227.592 105.266 227.685 105.022 227.784L105.011 227.788L105.007 227.79C104.469 228.007 103.873 228.248 103.091 228.567ZM105.629 178.954C105.671 178.775 105.714 178.59 105.756 178.411C106.278 178.52 106.799 178.634 107.321 178.748C107.294 178.856 107.268 178.961 107.241 179.068C107.23 179.111 107.22 179.154 107.209 179.198L105.629 178.954ZM100.41 265.657C100.252 265.631 100.088 265.658 99.9163 265.686C99.4779 265.758 98.9886 265.839 98.4307 265.071C99.3351 265.109 99.9097 265.136 100.484 265.163C100.471 265.247 100.459 265.33 100.447 265.413C100.435 265.495 100.423 265.578 100.41 265.662V265.657ZM109.412 207.69H109.412C109.251 207.698 109.167 207.703 109.14 207.669C109.072 207.588 109.044 207.482 109.017 207.377C109.005 207.334 108.994 207.291 108.98 207.251L109.099 207.313L109.101 207.314C109.266 207.4 109.461 207.501 109.789 207.68C109.633 207.68 109.509 207.686 109.412 207.69ZM115.141 225.277C115.014 225.217 114.892 225.152 114.771 225.088C114.269 224.82 113.782 224.56 112.997 224.691C111.827 224.887 111.47 225.31 111.257 226.206C111.194 226.466 110.683 226.743 110.321 226.83C109.199 227.09 107.73 226.184 107.267 224.968C107.541 224.835 107.815 224.701 108.091 224.567C108.291 224.47 108.492 224.373 108.693 224.275C109.552 223.858 110.417 223.438 111.289 223.008C111.525 223.186 111.742 223.348 111.965 223.513L111.966 223.514C112.076 223.596 112.187 223.678 112.302 223.764C112.359 223.806 112.417 223.849 112.476 223.893C112.563 223.812 112.649 223.729 112.734 223.646L112.734 223.646C113.496 222.908 114.232 222.197 115.514 222.748C115.95 223.633 116.062 224.447 115.141 225.272V225.277ZM123.93 263.584C123.363 263.489 122.976 263.73 122.77 264.305C122.954 264.191 123.115 264.091 123.266 263.997C123.494 263.855 123.699 263.727 123.93 263.584ZM147.998 290.534L148.528 290.615C149.028 290.691 149.448 290.755 149.871 290.816C149.08 291.171 148.456 291.077 147.998 290.534ZM156.516 290.04C156.447 289.916 156.376 289.81 156.314 289.716C156.193 289.535 156.104 289.402 156.122 289.28C156.143 289.134 156.526 288.884 156.633 288.922C156.84 288.998 157.08 289.237 157.096 289.427C157.106 289.523 156.98 289.63 156.807 289.775C156.718 289.85 156.617 289.935 156.516 290.035V290.04ZM169.492 310.727C169.649 311.098 169.803 311.465 169.978 311.882C170.074 312.112 170.176 312.357 170.29 312.626C168.667 312.187 168.651 312.127 169.492 310.727ZM180.158 296.82L180.047 296.478C180.371 296.353 180.696 296.228 181.02 296.098C181.057 296.179 181.095 296.26 181.132 296.34C181.169 296.42 181.206 296.5 181.244 296.581C181.06 296.622 180.878 296.662 180.695 296.702L180.637 296.715C180.48 296.749 180.322 296.784 180.164 296.82H180.158ZM206.003 276.041C205.37 275.075 205.046 274.489 206.163 274.141C206.319 274.092 206.521 274.159 206.771 274.242L206.771 274.242C206.906 274.287 207.054 274.337 207.216 274.375C207.002 274.67 206.82 274.921 206.619 275.196L206.615 275.202C206.437 275.445 206.245 275.709 206.003 276.041ZM217.138 297.373L216.915 297.113C216.946 297.088 216.976 297.058 217.006 297.028C217.068 296.965 217.129 296.903 217.197 296.896C217.27 296.888 217.349 296.945 217.427 297.002C217.457 297.024 217.487 297.046 217.516 297.064C217.452 297.116 217.39 297.167 217.327 297.219C217.291 297.249 217.255 297.278 217.219 297.308C217.192 297.33 217.165 297.352 217.138 297.373ZM234.799 269.201C233.921 269.287 233.045 269.373 232.132 269.462C231.586 269.115 230.851 268.646 230.116 268.177C230.777 268.281 231.451 268.253 232.127 268.226C233.158 268.183 234.193 268.141 235.184 268.567C235.371 268.648 235.817 268.371 236.078 268.187C237.092 267.495 237.654 268.026 238.483 268.808L238.515 268.838C237.264 268.961 236.107 269.074 234.958 269.186L234.799 269.201ZM230.074 268.156C230.085 268.162 230.096 268.169 230.107 268.175L229.987 268.159C229.981 268.154 229.975 268.15 229.968 268.146C229.961 268.142 229.955 268.138 229.949 268.132C229.781 268.148 229.613 268.167 229.445 268.186C228.906 268.247 228.369 268.308 227.853 268.246C227.668 268.224 227.52 267.952 227.371 267.681L227.371 267.681C227.306 267.562 227.24 267.443 227.172 267.345H228.688C228.924 267.493 229.126 267.62 229.309 267.734C229.542 267.881 229.744 268.007 229.944 268.132C229.955 268.132 229.967 268.131 229.979 268.13C229.991 268.128 230.003 268.127 230.013 268.127H230.018C230.038 268.134 230.056 268.144 230.074 268.156ZM227.167 267.345C227.102 267.355 227.037 267.366 226.971 267.378C226.398 267.477 225.795 267.58 225.012 266.933C225.49 267.025 225.874 267.099 226.209 267.163L226.219 267.165C226.567 267.231 226.862 267.287 227.156 267.345H227.162H227.167ZM243.171 271.336L243.133 271.309C242.734 271.023 242.328 270.733 241.909 270.434C243.856 270.488 244.792 271.177 244.292 272.138C243.921 271.873 243.549 271.607 243.171 271.336ZM247.112 273.837C248.49 272.61 248.841 272.686 250.246 274.478C249.789 274.384 249.374 274.3 248.973 274.218L248.948 274.213C248.334 274.089 247.754 273.971 247.112 273.837ZM250.857 228.339C250.79 228.327 250.736 228.26 250.682 228.192L250.682 228.192C250.659 228.163 250.636 228.135 250.613 228.111C250.652 228.097 250.691 228.083 250.729 228.069L250.794 228.046C250.854 228.024 250.913 228.002 250.974 227.981C251.003 228.01 251.03 228.038 251.058 228.067L251.059 228.068C251.114 228.125 251.168 228.182 251.224 228.236C251.187 228.247 251.148 228.264 251.109 228.28C251.022 228.317 250.935 228.354 250.857 228.339ZM252.161 226.993C252.179 226.79 252.357 226.598 252.536 226.406C252.616 226.319 252.696 226.233 252.762 226.146C252.808 226.163 252.855 226.18 252.902 226.197L252.964 226.219C253.011 226.236 253.059 226.253 253.105 226.27C253.126 226.278 253.146 226.285 253.166 226.292C253.187 226.569 253.21 226.846 253.233 227.128L253.254 227.392C253.271 227.596 253.288 227.802 253.305 228.013C252.214 228.133 252.124 227.53 252.161 226.993ZM251.815 275.558C251.858 275.384 251.9 275.211 251.948 275.037C252.382 275.23 252.859 275.256 253.337 275.282C254.179 275.327 255.022 275.373 255.63 276.329C254.994 276.201 254.358 276.072 253.723 275.943C253.087 275.814 252.451 275.685 251.815 275.558ZM258.944 257.357C258.125 256.874 257.321 256.359 256.592 255.772C256.345 255.575 256.202 255.277 256.075 255.016C256.025 254.912 255.978 254.814 255.927 254.73C256.396 254.529 256.827 254.344 257.234 254.168L257.238 254.166C257.907 253.878 258.514 253.616 259.125 253.357C260.061 252.961 261.21 253.319 261.865 254.193C262.503 255.051 262.413 255.42 261.402 256.163C261.21 256.299 261.003 256.462 260.912 256.646C260.375 257.803 259.981 257.971 258.939 257.352L258.944 257.357ZM260.279 278.277C259.875 277.474 260.689 277.127 261.545 276.833C261.675 277.026 261.798 277.209 261.922 277.394C262.003 277.515 262.084 277.636 262.168 277.762C262.306 277.968 262.452 278.186 262.615 278.429C261.604 278.934 260.71 279.13 260.279 278.272V278.277ZM264.259 192.975C264.104 192.872 263.95 192.763 263.737 192.611C263.785 192.566 263.828 192.516 263.869 192.467C263.954 192.369 264.031 192.278 264.12 192.264C264.22 192.252 264.333 192.317 264.448 192.383L264.449 192.384C264.499 192.413 264.549 192.442 264.599 192.465C264.567 192.513 264.535 192.561 264.503 192.61C264.423 192.732 264.342 192.855 264.259 192.975ZM265.722 275.683C265.53 274.731 265.763 273.969 266.419 273.398C266.383 273.617 266.425 273.851 266.467 274.089C266.569 274.657 266.675 275.243 265.722 275.683ZM269.488 247.63C269.433 247.6 269.377 247.569 269.311 247.532C269.202 247.471 269.067 247.395 268.861 247.283C268.944 247.234 269.017 247.189 269.082 247.149C269.242 247.05 269.36 246.978 269.488 246.936C269.531 246.925 269.738 247.115 269.728 247.191C269.709 247.297 269.641 247.398 269.572 247.5L269.572 247.501C269.543 247.544 269.514 247.587 269.488 247.63ZM309.411 236.101C309.411 236.101 309.57 236.134 309.57 236.144C309.566 236.301 309.552 236.461 309.539 236.616L309.539 236.617C309.535 236.661 309.531 236.704 309.528 236.747C309.461 236.731 309.394 236.715 309.326 236.698C309.258 236.682 309.19 236.666 309.123 236.649C309.148 236.601 309.173 236.553 309.197 236.505L309.204 236.492L309.205 236.491C309.272 236.359 309.339 236.229 309.411 236.101ZM283.02 251.546C283.102 251.452 283.196 251.343 283.286 251.222C283.37 251.36 283.447 251.477 283.517 251.582L283.517 251.582C283.653 251.788 283.757 251.945 283.81 252.114C283.829 252.175 283.707 252.272 283.588 252.366C283.539 252.405 283.491 252.443 283.454 252.478C283.388 252.423 283.318 252.371 283.247 252.319C283.073 252.189 282.898 252.059 282.799 251.897C282.765 251.841 282.871 251.718 283.019 251.547L283.02 251.546ZM308.554 215.702C308.447 215.706 308.338 215.616 308.23 215.526C308.187 215.49 308.144 215.455 308.102 215.425C308.201 215.328 308.297 215.229 308.411 215.111C308.475 215.045 308.545 214.974 308.623 214.893C308.687 214.981 308.754 215.058 308.812 215.126C308.92 215.25 308.999 215.34 308.974 215.404C308.932 215.534 308.703 215.697 308.554 215.702ZM318.705 200.802C318.474 200.709 318.27 200.561 318.014 200.374L318.014 200.374C317.899 200.291 317.773 200.199 317.63 200.102C317.785 200.01 317.936 199.91 318.069 199.822L318.069 199.821C318.306 199.664 318.487 199.544 318.535 199.575C318.827 199.771 319.056 200.075 319.2 200.373C319.237 200.449 318.785 200.835 318.705 200.802ZM321.604 198.484C320.673 198.414 319.87 198.354 318.971 198.289C319.058 198.043 319.141 197.81 319.22 197.585L319.22 197.584C319.399 197.081 319.561 196.624 319.716 196.177C322.291 196.438 322.37 196.53 321.604 198.479V198.484ZM324.53 198.501C324.594 198.474 324.823 198.62 324.818 198.631L324.799 198.678C324.745 198.817 324.682 198.979 324.568 199.027C324.503 199.056 324.39 199.007 324.245 198.943C324.214 198.929 324.18 198.915 324.146 198.9C324.104 198.882 324.06 198.865 324.014 198.848C324.084 198.798 324.145 198.751 324.199 198.709C324.328 198.611 324.424 198.537 324.536 198.495L324.53 198.501ZM324.658 208.32C324.58 208.32 324.503 208.278 324.425 208.236C324.391 208.218 324.357 208.199 324.323 208.184C324.383 208.091 324.446 207.997 324.536 207.862C324.566 207.817 324.6 207.768 324.637 207.712C324.729 207.833 324.799 207.924 324.859 208.001C324.907 208.062 324.948 208.115 324.988 208.168C324.957 208.184 324.925 208.203 324.894 208.223C324.816 208.271 324.737 208.32 324.658 208.32ZM327.632 204.32C327.206 203.028 327.462 202.402 328.398 202.441C328.227 202.864 328.063 203.266 327.901 203.662L327.879 203.716C327.796 203.918 327.714 204.118 327.632 204.32ZM197.284 151.74C196.647 151.832 196.035 151.77 195.444 151.71C195.161 151.681 194.882 151.653 194.608 151.642C194.624 153.77 194.64 155.817 194.656 157.733C195.768 158.053 196.895 158.324 198.061 158.493C198.297 158.528 198.519 158.644 198.743 158.76C198.896 158.84 199.05 158.921 199.21 158.976C201.779 159.871 204.349 160.762 206.929 161.63C207.584 161.853 208.084 162.113 207.887 162.982C207.766 162.973 207.644 162.969 207.523 162.965H207.522C207.263 162.956 207.005 162.947 206.759 162.895C206.57 162.856 206.382 162.782 206.196 162.709C205.917 162.599 205.642 162.491 205.37 162.504C203.184 162.628 201.334 161.816 199.502 161.013L199.502 161.013L199.502 161.013C199.079 160.827 198.656 160.642 198.231 160.469C197.943 160.35 197.656 160.232 197.369 160.113L197.365 160.111L197.364 160.111C196.466 159.74 195.571 159.37 194.661 159.025C194.736 166.016 194.837 171.032 194.959 171.455H231.902C230.625 171.097 229.348 170.739 228.098 170.315C227.465 170.102 226.897 169.73 226.277 169.324L226.276 169.324C225.98 169.129 225.671 168.927 225.337 168.73C227.178 168.168 228.795 168.412 230.365 168.649L230.366 168.649L230.366 168.649L230.366 168.649C230.874 168.726 231.376 168.802 231.881 168.85C232.171 168.877 232.548 168.838 232.899 168.802C233.382 168.752 233.816 168.708 233.902 168.85C234.44 169.733 235.135 169.443 235.693 169.211L235.763 169.182L235.807 169.164C236.711 168.798 237.572 168.354 238.498 167.876L238.498 167.876L238.499 167.876L238.499 167.876C238.864 167.687 239.24 167.493 239.632 167.297C239.467 167.182 239.327 167.071 239.199 166.97L239.198 166.969C238.963 166.783 238.769 166.629 238.541 166.548C235.136 165.332 231.726 164.122 228.305 162.944C227.357 162.618 226.401 162.312 225.445 162.006C224.139 161.587 222.833 161.169 221.549 160.702C220.784 160.424 220.04 160.096 219.296 159.768C218.255 159.309 217.215 158.851 216.122 158.531C215.823 158.443 215.52 158.335 215.214 158.225L215.214 158.225C213.875 157.745 212.476 157.244 211.02 158.362C210.552 158.726 209.823 158.276 209.898 157.695C209.95 157.27 210.061 156.847 210.172 156.423L210.173 156.423L210.173 156.423C210.219 156.246 210.265 156.07 210.308 155.893C208.419 154.992 206.536 154.682 204.62 154.492C202.514 154.286 200.609 153.602 198.827 152.527C199.231 152.359 199.71 152.202 199.971 152.348C201.29 153.075 202.636 153.45 204.2 153.081C204.572 152.994 205.088 153.07 205.424 153.249C207.52 154.354 209.844 154.715 212.167 155.076L212.167 155.076L212.168 155.076L212.169 155.077C212.834 155.18 213.5 155.283 214.159 155.404C214.283 155.429 214.396 155.497 214.537 155.581L214.537 155.581C214.613 155.627 214.698 155.678 214.798 155.73L214.666 156.107L214.654 156.143L214.653 156.146C214.54 156.471 214.412 156.838 214.239 157.342C214.481 157.324 214.711 157.324 214.923 157.324H214.923C215.339 157.324 215.688 157.325 215.931 157.185C217.117 156.495 218.213 156.701 219.341 157.212C219.768 157.405 220.188 157.622 220.606 157.839L220.607 157.84C221.491 158.298 222.373 158.755 223.326 158.987C223.8 159.105 224.264 159.305 224.73 159.505L224.73 159.505C225.957 160.034 227.196 160.567 228.673 159.627C228.749 159.776 228.821 159.927 228.891 160.075C229.285 160.906 229.649 161.673 230.737 161.76C232.221 161.885 233.594 162.211 234.998 162.694C235.554 162.885 236.14 162.97 236.739 163.057L236.74 163.057L236.74 163.057C237.5 163.167 238.28 163.28 239.041 163.617C239.555 163.845 240.153 163.984 240.767 164.126L240.767 164.126L240.767 164.126C241.379 164.267 242.006 164.412 242.579 164.654C242.925 164.8 243.447 164.871 243.776 164.74C244.803 164.344 245.66 164.453 246.404 165.316C246.678 164.749 246.906 164.271 247.123 163.814L247.125 163.811L247.125 163.81L247.222 163.606L247.357 163.324C247.397 163.337 247.438 163.351 247.479 163.365C247.589 163.402 247.701 163.44 247.809 163.476C247.78 163.622 247.753 163.767 247.726 163.913L247.726 163.913L247.726 163.914C247.665 164.245 247.605 164.574 247.516 164.898C247.277 165.761 247.453 166.277 248.549 166.602C249.131 166.777 249.704 166.983 250.277 167.188C252.094 167.842 253.906 168.494 256.002 168.122C256.177 168.093 256.388 168.228 256.601 168.363L256.601 168.364C256.705 168.43 256.81 168.497 256.912 168.546C257.106 168.638 257.3 168.734 257.493 168.83L257.494 168.83C257.982 169.072 258.471 169.314 258.981 169.501C259.195 169.579 259.409 169.656 259.622 169.731C259.751 169.777 259.879 169.822 260.008 169.867C261.082 170.245 262.149 170.62 263.195 171.151C263.62 171.368 264.048 171.577 264.474 171.786C266.055 172.561 267.621 173.328 268.983 174.435C269.212 174.62 269.59 174.755 269.967 174.81V144.928C269.507 144.324 268.956 143.847 268.404 143.37C267.49 142.578 266.574 141.787 266.073 140.412V130.636C264.825 131.493 263.723 132.433 262.645 133.353L262.645 133.353C261.587 134.255 260.553 135.137 259.428 135.901C259.692 135.338 259.919 134.758 260.146 134.179C260.657 132.876 261.164 131.583 262.067 130.527C262.972 129.47 263.959 128.491 264.922 127.534L264.922 127.533C265.334 127.124 265.742 126.72 266.137 126.315C266.138 126.209 266.14 126.104 266.141 126C266.143 125.883 266.145 125.768 266.148 125.653C266.149 125.58 266.151 125.508 266.152 125.437L266.157 125.199L266.158 125.169C266.187 123.843 266.214 122.598 266.073 121.337L266.049 121.305C264.248 118.889 262.447 116.474 260.652 114.064C260.535 114.129 260.418 114.194 260.295 114.227C260.266 114.234 260.209 114.169 260.141 114.093C260.122 114.071 260.101 114.047 260.08 114.025C260.069 114.012 260.057 114 260.045 113.988C260.069 113.977 260.093 113.967 260.116 113.956C260.134 113.948 260.151 113.94 260.169 113.932L260.169 113.932L260.169 113.931C260.271 113.885 260.368 113.84 260.471 113.809C255.927 107.712 251.381 101.612 246.827 95.5009L246.458 95.0062C241.232 87.9941 235.995 80.9667 230.737 73.9121C229.674 74.9609 228.785 75.8234 227.994 76.591L227.993 76.5916L227.993 76.5918C226.254 78.2789 224.987 79.5071 223.39 81.2455C224.252 82.6622 225.773 85.17 225.773 85.17L227.289 88.1392C227.289 88.1392 227.784 93.3338 228.039 96.2107C227.385 95.2011 225.917 91.32 225.917 91.32L221.448 85.4251L220.453 84.1983C220.453 84.1983 203.21 101.623 194.725 110.177C194.507 112.495 194.48 133.958 194.592 150.839L195.224 151.046L195.224 151.046C195.925 151.275 196.601 151.495 197.273 151.713L197.284 151.74ZM218.862 165.745C219.59 165.944 220.281 166.256 220.97 166.567L220.971 166.567C221.079 166.616 221.186 166.664 221.294 166.712C221.352 166.738 221.411 166.764 221.47 166.79C221.496 166.802 221.523 166.813 221.549 166.825C221.749 166.912 221.962 166.982 222.181 167.053L222.181 167.054L222.181 167.054L222.182 167.054C222.83 167.265 223.526 167.492 224.055 168.247C221.017 167.639 218.516 166.678 216.059 165.18C216.998 164.674 217.588 165.038 218.144 165.381L218.144 165.381C218.382 165.527 218.613 165.669 218.862 165.739V165.745ZM246 142.702C249.027 141.633 252.06 140.591 255.098 139.56C255.191 139.531 255.315 139.581 255.463 139.64C255.512 139.659 255.563 139.679 255.616 139.698C255.652 139.711 255.688 139.723 255.725 139.733C254.964 140.605 254.244 141.426 253.472 142.308L253.462 142.319L253.145 142.681C252.872 142.379 252.644 142.125 252.438 141.895L252.436 141.893C252.31 141.752 252.191 141.62 252.076 141.492C250.696 142.447 249.15 142.796 247.622 143.14C246.804 143.325 245.992 143.508 245.213 143.783C245.178 143.702 245.142 143.622 245.107 143.543C245.073 143.466 245.039 143.39 245.005 143.316C245.111 143.25 245.213 143.177 245.315 143.104C245.532 142.95 245.749 142.796 245.995 142.708L246 142.702ZM242.202 160.345C242.169 160.307 242.138 160.273 242.109 160.241C242.013 160.136 241.939 160.054 241.904 159.964C241.882 159.909 242.069 159.714 242.122 159.725C242.242 159.749 242.352 159.81 242.463 159.871L242.498 159.891C242.524 159.905 242.549 159.918 242.574 159.931C242.489 160.061 242.404 160.197 242.265 160.42C242.244 160.393 242.223 160.369 242.202 160.345ZM242.382 133.149C242.265 133.768 242.202 134.104 242.063 134.815C241.775 134.617 241.54 134.456 241.309 134.298L241.3 134.291C240.984 134.074 240.673 133.861 240.238 133.561C241.16 133.385 241.664 133.288 242.349 133.155L242.382 133.149ZM235.413 161.869C235.371 161.657 235.323 161.44 235.275 161.228C235.732 161.18 236.185 161.131 236.642 161.082C236.658 161.171 236.675 161.261 236.693 161.351L236.693 161.354C236.71 161.442 236.727 161.531 236.743 161.619C236.501 161.663 236.26 161.709 236.02 161.755L236.016 161.756C235.815 161.794 235.614 161.832 235.413 161.869ZM228.536 149.322L228.536 149.322L228.537 149.321L228.537 149.321L228.538 149.321C229.427 148.939 230.316 148.557 231.226 148.223C231.62 148.078 232.009 147.913 232.403 147.745L232.404 147.745C233.785 147.156 235.24 146.536 237.281 146.676C237.006 146.884 236.777 147.089 236.575 147.27C236.197 147.609 235.913 147.863 235.605 147.892C234.317 148.011 234.189 148.695 234.317 149.249C233.925 149.387 233.54 149.502 233.17 149.612L233.17 149.612C232.398 149.841 231.694 150.05 231.125 150.421C230.167 151.056 229.167 151.311 228.05 151.561C227.845 151.607 227.637 151.651 227.43 151.695L227.429 151.695C226.017 151.993 224.586 152.296 223.602 153.303C223.129 153.254 222.668 153.208 222.215 153.162C222.019 153.142 221.824 153.123 221.63 153.103C221.38 153.078 221.132 153.052 220.884 153.027C220.804 152.896 220.73 152.772 220.655 152.641C221.757 151.767 223.117 151.326 224.483 150.884C224.932 150.738 225.38 150.593 225.821 150.432H225.816C226.738 150.094 227.637 149.708 228.536 149.322ZM218.144 106.698C218.239 106.698 218.331 106.79 218.423 106.88C218.465 106.922 218.506 106.964 218.548 106.996C218.509 107.03 218.471 107.07 218.432 107.11C218.338 107.207 218.242 107.307 218.133 107.322C218.053 107.333 217.957 107.26 217.839 107.17C217.777 107.122 217.709 107.07 217.633 107.023C217.708 106.973 217.774 106.92 217.834 106.871C217.955 106.773 218.052 106.694 218.144 106.698ZM205.823 101.617C206.062 102.088 206.244 102.44 206.441 102.823L206.665 103.258L206.764 103.452C206.3 103.33 205.957 103.238 205.631 103.151L205.624 103.149C205.414 103.093 205.211 103.039 204.987 102.98C205.058 102.864 205.122 102.758 205.186 102.653L205.19 102.646C205.371 102.348 205.545 102.06 205.823 101.617ZM199.188 111.475C199.284 111.428 199.486 111.552 199.711 111.691C199.825 111.761 199.946 111.836 200.061 111.893C199.45 112.321 198.916 112.695 198.276 113.143L197.518 113.673C197.789 112.457 198.385 111.876 199.183 111.469L199.188 111.475ZM195.698 141.877C195.851 141.924 195.982 142.027 196.112 142.129L196.112 142.129C196.164 142.169 196.215 142.21 196.268 142.246C196.119 142.404 195.97 142.561 195.821 142.713L195.736 142.647L195.654 142.582C195.524 142.48 195.385 142.37 195.214 142.241C195.291 142.179 195.363 142.114 195.426 142.055L195.427 142.055C195.548 141.944 195.641 141.858 195.693 141.872L195.698 141.877ZM162.234 175.975C166.586 175.177 170.89 175.639 175.151 176.621L175.157 176.626C177.928 177.262 178.737 178.347 179.147 181.246C179.407 183.075 179.45 184.899 179.45 186.734V223.829C179.285 223.731 179.131 223.628 178.998 223.509C178.078 222.686 176.916 222.389 175.757 222.093L175.757 222.093C175.225 221.958 174.695 221.822 174.188 221.636C173.936 221.544 173.68 221.455 173.424 221.366L173.423 221.366C172.566 221.069 171.703 220.77 170.954 220.323L170.737 220.192C169.092 219.201 169.059 219.181 167.272 220.171C165.285 218.723 162.852 218.126 160.466 217.54L160.324 217.505C160.083 217.445 159.843 217.387 159.602 217.329L159.602 217.329C157.864 216.909 156.16 216.497 154.674 215.486C154.648 215.471 154.622 215.456 154.596 215.442C154.585 215.437 154.574 215.431 154.562 215.426C154.568 210.43 154.572 205.433 154.576 200.436L154.576 200.266L154.576 200.095C154.58 195.099 154.584 190.102 154.589 185.105C154.589 183.319 154.866 181.577 155.27 179.845C155.627 178.32 156.558 177.419 157.999 176.92C159.141 176.521 160.315 176.314 161.488 176.108C161.737 176.064 161.986 176.021 162.234 175.975ZM166.059 177.094L165.756 177.875C165.868 177.897 165.979 177.924 166.091 177.951C166.15 177.679 166.203 177.408 166.256 177.137C166.241 177.134 166.225 177.132 166.21 177.129C166.19 177.125 166.171 177.121 166.153 177.117C166.121 177.11 166.089 177.102 166.059 177.094ZM165.777 217.106C165.959 217.131 166.14 217.157 166.315 217.136C166.378 217.131 166.485 216.784 166.442 216.756C166.293 216.664 166.086 216.604 165.9 216.599C165.753 216.591 165.607 216.622 165.462 216.651L165.462 216.651L165.461 216.652C165.401 216.664 165.342 216.676 165.283 216.686C165.356 216.776 165.428 216.869 165.498 216.961L165.498 216.961L165.501 216.965L165.55 217.029L165.591 217.082C165.607 217.084 165.623 217.086 165.639 217.088C165.661 217.09 165.683 217.093 165.705 217.096L165.777 217.106ZM172.858 218.385C171.842 217.771 171.268 217.674 170.704 218.45C171.323 219.013 171.835 218.803 172.584 218.496C172.672 218.46 172.763 218.423 172.858 218.385ZM320.443 197.421L320.438 197.419L320.456 197.381C320.466 197.361 320.475 197.341 320.484 197.322L320.515 197.256L320.516 197.253L320.545 197.192C320.56 197.159 320.576 197.127 320.592 197.094C320.89 197.208 321.182 197.322 321.475 197.436C321.427 197.539 321.379 197.642 321.326 197.745C321.035 197.637 320.739 197.529 320.443 197.421ZM238.246 169.227C238.18 169.153 238.103 169.067 238.016 168.982C238.116 168.943 238.206 168.903 238.289 168.865C238.47 168.784 238.616 168.718 238.766 168.711C238.83 168.707 238.902 168.82 238.975 168.933L238.975 168.933C239.01 168.988 239.045 169.043 239.08 169.086C239.024 169.119 238.969 169.156 238.914 169.193L238.913 169.194C238.774 169.287 238.635 169.381 238.478 169.428C238.438 169.441 238.359 169.352 238.247 169.228L238.247 169.228L238.246 169.227Z" fill="black"/>
</svg>
